<svg xmlns="http://www.w3.org/2000/svg" viewBox="0 0 720 400"><defs><linearGradient id="bg" x2="1" y2="1"><stop stop-color="#111722"/><stop offset="1" stop-color="#0d0b18"/></linearGradient><radialGradient id="glow"><stop stop-color="#59dcf5" stop-opacity=".19"/><stop offset="1" stop-color="#59dcf5" stop-opacity="0"/></radialGradient><linearGradient id="line"><stop stop-color="#59dcf5"/><stop offset="1" stop-color="#879bff"/></linearGradient><pattern id="grid" width="32" height="32" patternUnits="userSpaceOnUse"><path d="M32 0H0v32" fill="none" stroke="#8b9bc1" stroke-opacity=".08"/></pattern></defs><rect width="720" height="400" fill="url(#bg)"/><rect width="720" height="400" fill="url(#grid)"/><ellipse cx="500" cy="190" rx="330" ry="280" fill="url(#glow)"/><g font-family="monospace" fill="#c3c7d6"><text x="42" y="47" font-size="13" letter-spacing="2" fill="#59dcf5">NETWORK TRAFFIC / PCAP</text><rect x="58" y="90" width="604" height="217" rx="12" fill="#101822" stroke="#294753"/><path d="M58 135h604" stroke="#294753"/><g font-size="12" fill="#8fadc0"><text x="80" y="118">NO.</text><text x="145" y="118">SOURCE</text><text x="343" y="118">DESTINATION</text><text x="542" y="118">PROTOCOL</text></g><g font-size="15"><text x="82" y="176">001</text><text x="145" y="176">192.0.2.10</text><text x="343" y="176">192.0.2.20</text><text x="550" y="176" fill="#59dcf5">TCP</text><text x="82" y="217">002</text><text x="145" y="217">192.0.2.20</text><text x="343" y="217">192.0.2.10</text><text x="550" y="217" fill="#879bff">TLS</text></g><path d="M80 272h56l10-12 13 23 12-29 12 18h92l12-14 15 23 13-31 12 22h126l13-11 12 22 11-31 13 20h113" fill="none" stroke="url(#line)" stroke-width="2"/></g><path d="M42 355h48" stroke="#59dcf5" stroke-width="3"/><text x="105" y="360" font-size="12" fill="#8b93aa" letter-spacing="2">BRANDON CHANEY / LAB</text></svg>